<svg width="407" height="392" viewBox="0 0 407 392" fill="none" xmlns="http://www.w3.org/2000/svg">
<path opacity="0.07" d="M357.721 198.055C357.721 270.353 315.397 304.5 263.218 274.411C211.038 244.322 168.768 161.274 168.768 89.0281C168.768 16.73 211.091 -17.4166 263.27 12.6725C315.45 42.7616 357.721 125.757 357.721 198.055Z" fill="url(#paint0_linear)"/>
<path opacity="0.4" d="M220.366 46.0286C207.927 38.8621 195.647 35.1734 184.209 35.1207C172.772 35.068 162.336 38.704 153.534 45.8179C144.732 52.9317 137.775 63.3127 133.031 76.4339C128.288 89.555 125.811 105.206 125.811 122.384L220.313 176.871L220.366 46.0286Z" fill="url(#paint1_linear)"/>
<path opacity="0.2" d="M146.895 104.258C146.895 130.131 152.429 158.639 162.812 186.146C173.195 213.653 187.953 238.947 205.188 258.813C222.423 278.679 241.45 292.222 259.792 297.755C278.134 303.288 294.947 300.548 308.177 289.851C321.406 279.154 330.366 261.026 334.055 237.788C337.692 214.496 335.847 187.095 328.679 159.061C321.511 131.027 309.441 103.572 293.893 80.2284C278.345 56.8843 260.108 38.6517 241.397 27.9019V158.797L146.895 104.258Z" fill="url(#paint2_linear)"/>
<path opacity="0.3" d="M173.511 90.978L16.709 0.5L16.7617 82.2306L159.755 164.752L173.616 185.25L173.511 90.978Z" fill="url(#paint3_linear)"/>
<path d="M0 32.3283V10.1436L59.1894 44.2902V66.475L0 32.3283Z" fill="#3075DE"/>
<path opacity="0.15" d="M133.189 87.6055L98.8242 67.792V74.9586L133.189 94.772V87.6055Z" fill="#3E84E6"/>
<path opacity="0.15" d="M133.242 101.991L66.9902 63.7871V70.9537L133.242 109.158V101.991Z" fill="#3E84E6"/>
<path opacity="0.15" d="M133.243 116.325L52.9707 70.0581V77.2247L133.243 123.544V116.325Z" fill="#3E84E6"/>
<path d="M141.674 99.9887C141.674 106.734 145.68 114.48 150.581 117.325C155.483 120.171 159.489 117.009 159.489 110.264C159.489 103.519 155.483 95.7731 150.581 92.9275C145.627 90.082 141.674 93.2437 141.674 99.9887Z" fill="#3075DE"/>
<path opacity="0.3" d="M236.6 217.395L393.454 307.925L393.507 389.656L250.514 307.135L236.705 311.667L236.6 217.395Z" fill="url(#paint4_linear)"/>
<path d="M347.811 322.311V300.126L407 334.273V356.457L347.811 322.311Z" fill="#3075DE"/>
<path opacity="0.15" d="M276.973 260.604L311.337 280.418V287.585L276.973 267.771V260.604Z" fill="#3E84E6"/>
<path opacity="0.15" d="M276.973 274.938L339.008 310.718V317.885L276.973 282.157V274.938Z" fill="#3E84E6"/>
<path opacity="0.15" d="M276.973 289.324L357.245 335.643V342.81L276.973 296.49V289.324Z" fill="#3E84E6"/>
<path d="M268.487 263.187C268.487 269.932 264.481 273.093 259.579 270.248C254.678 267.402 250.672 259.656 250.672 252.911C250.672 246.166 254.678 243.004 259.579 245.85C264.481 248.695 268.487 256.442 268.487 263.187Z" fill="#3075DE"/>
<path opacity="0.3" d="M126.285 176.924L214.621 227.881V391.5L126.285 340.544V176.924Z" fill="url(#paint5_linear)"/>
<path opacity="0.15" d="M134.98 274.042L205.923 314.986V322.153L134.98 281.209V274.042Z" fill="#3E84E6"/>
<path opacity="0.15" d="M139.936 290.904L200.917 326.105V333.271L139.936 298.071V290.904Z" fill="#3E84E6"/>
<path d="M165.71 320.151L104.254 284.687V302.972L165.71 338.436V320.151Z" fill="#3E84E6"/>
<path d="M180.52 241.265C180.52 249.17 175.935 252.911 170.295 249.644C164.656 246.377 160.07 237.26 160.07 229.303C160.07 221.399 164.656 217.658 170.295 220.925C175.935 224.245 180.52 233.361 180.52 241.265Z" fill="#3E84E6"/>
<path d="M170.296 256.02C161.178 250.698 153.64 255.704 152.323 267.139C152.112 269.141 153.588 271.776 155.433 272.83L185.159 290.219C187.004 291.273 188.48 290.43 188.269 288.164C186.951 275.096 179.414 261.342 170.296 256.02Z" fill="#3E84E6"/>
<path opacity="0.2" d="M77.1092 163.54L54.5508 150.524V142.936L77.1092 155.952C78.9539 157.006 81.6419 159.166 83.9083 162.486C86.3855 166.017 88.1248 170.496 88.1248 175.344C88.1248 180.719 86.7545 183.775 84.1718 184.618C81.7473 185.409 78.8485 184.038 77.1092 183.037L67.8328 177.662L67.7801 177.61C66.9895 177.135 65.7246 176.661 64.7231 176.977C63.8798 177.241 62.9838 178.031 62.9838 181.035C62.9838 184.038 63.9325 185.83 64.6704 186.937C65.6191 188.307 66.8841 189.255 67.6747 189.677L67.7801 189.73L96.1362 206.118V213.706L67.9909 197.423C66.0408 196.422 63.2474 194.261 60.8229 190.889C58.1875 187.147 56.3955 182.458 56.3955 177.241C56.3955 172.024 58.1875 169.389 60.7702 168.651C63.1947 167.966 65.9881 168.968 67.9382 170.127L77.1092 175.449C78.4268 176.24 79.4283 176.556 80.1134 176.345C80.6405 176.187 81.5892 175.449 81.5892 171.602C81.5892 169.073 80.7986 167.439 80.008 166.385C79.0593 164.963 77.8471 163.962 77.1092 163.54Z" fill="#3E84E6"/>
<path d="M58.6625 148.89C58.6625 155.688 54.6568 158.902 49.7551 156.109C44.8534 153.264 40.8477 145.465 40.8477 138.615C40.8477 131.817 44.8534 128.602 49.7551 131.395C54.6568 134.241 58.6625 142.092 58.6625 148.89Z" fill="#3075DE"/>
<path d="M107.68 216.34C107.68 223.138 103.674 226.353 98.7726 223.56C93.8709 220.714 89.8652 212.915 89.8652 206.065C89.8652 199.267 93.8709 196.053 98.7726 198.846C103.674 201.691 107.68 209.543 107.68 216.34Z" fill="#3E84E6"/>
<defs>
<linearGradient id="paint0_linear" x1="376.709" y1="87.2594" x2="201.772" y2="174.058" gradientUnits="userSpaceOnUse">
<stop stop-color="#3E84E6"/>
<stop offset="1" stop-color="white" stop-opacity="0"/>
</linearGradient>
<linearGradient id="paint1_linear" x1="260.525" y1="75.9235" x2="154.677" y2="125.777" gradientUnits="userSpaceOnUse">
<stop stop-color="#3E84E6"/>
<stop offset="1" stop-color="white" stop-opacity="0"/>
</linearGradient>
<linearGradient id="paint2_linear" x1="309.866" y1="112.368" x2="232.443" y2="192.324" gradientUnits="userSpaceOnUse">
<stop stop-color="#3E84E6"/>
<stop offset="1" stop-color="white" stop-opacity="0"/>
</linearGradient>
<linearGradient id="paint3_linear" x1="139.327" y1="58.2555" x2="58.3563" y2="121.667" gradientUnits="userSpaceOnUse">
<stop stop-color="#3E84E6"/>
<stop offset="1" stop-color="white" stop-opacity="0"/>
</linearGradient>
<linearGradient id="paint4_linear" x1="303.99" y1="220.057" x2="324.258" y2="384.484" gradientUnits="userSpaceOnUse">
<stop stop-color="#3E84E6"/>
<stop offset="1" stop-color="white" stop-opacity="0"/>
</linearGradient>
<linearGradient id="paint5_linear" x1="224.082" y1="191.345" x2="145.697" y2="327.176" gradientUnits="userSpaceOnUse">
<stop stop-color="#3E84E6"/>
<stop offset="1" stop-color="white" stop-opacity="0"/>
</linearGradient>
</defs>
</svg>
